<svg width="40" height="40" viewBox="0 0 40 40" fill="none" xmlns="http://www.w3.org/2000/svg">
<g clip-path="url(#clip0_1_11)">
<path d="M28.302 39.5C28.25 39.5 28.198 39.492 28.148 39.475L7.251 32.594C7.125 32.553 7.022 32.464 6.962 32.344C6.902 32.224 6.891 32.089 6.933 31.963L16.629 2.51799C16.695 2.31599 16.892 2.17499 17.106 2.17499C17.158 2.17499 17.21 2.18299 17.26 2.19999L38.156 9.08099C38.282 9.12199 38.385 9.21099 38.445 9.33099C38.506 9.45099 38.516 9.58599 38.474 9.71199L28.778 39.157C28.712 39.359 28.516 39.5 28.302 39.5Z" fill="#E1EBF2"/>
<path d="M17.107 2.67499L38 9.55599L28.304 39L7.408 32.119L17.107 2.67499ZM17.106 1.67499C16.686 1.67499 16.292 1.94299 16.154 2.36199L6.458 31.806C6.286 32.328 6.573 32.897 7.095 33.069L27.991 39.95C28.094 39.984 28.199 40 28.302 40C28.722 40 29.116 39.732 29.254 39.313L38.95 9.86799C39.122 9.34599 38.835 8.77699 38.313 8.60499L17.417 1.72499C17.314 1.69099 17.209 1.67499 17.106 1.67499Z" fill="#788B9C"/>
<path d="M34 15.623L33.136 15.338L33.107 13.989L31.239 13.374L30.43 14.448L29.569 14.164L32.911 10L33.799 10.292L34 15.623ZM33.109 13.277L33.074 11.166C33.074 11.098 33.086 10.991 33.109 10.847L33.096 10.843C33.035 10.962 32.98 11.054 32.932 11.119L31.656 12.799L33.109 13.277ZM11.64 26.197L12.504 26.482L12.533 27.831L14.401 28.446L15.21 27.372L16.071 27.656L12.729 31.82L11.841 31.528L11.64 26.197ZM12.531 28.542L12.566 30.653C12.566 30.721 12.554 30.828 12.531 30.972L12.544 30.976C12.605 30.857 12.66 30.765 12.708 30.7L13.984 29.02L12.531 28.542Z" fill="#C74343"/>
<path d="M21.993 26.42C20.642 24.217 17.896 19.063 18.593 16.931C19.04 15.563 20.26 14.643 21.628 14.643C21.938 14.643 22.244 14.692 22.54 14.789C23.385 15.065 23.696 15.744 24.127 16.682C24.208 16.858 24.291 17.038 24.379 17.219L24.657 17.789L25.146 17.385C25.841 16.811 26.577 16.521 27.334 16.521C27.675 16.521 28.026 16.58 28.38 16.697C29.996 17.233 30.858 19.053 30.301 20.756C29.314 23.777 23.51 25.909 21.993 26.42Z" fill="#F78F8F"/>
<path d="M21.627 15.144C21.884 15.144 22.138 15.185 22.384 15.265C22.994 15.464 23.233 15.933 23.672 16.891C23.755 17.071 23.839 17.254 23.929 17.439L24.486 18.579L25.465 17.771C26.068 17.273 26.697 17.021 27.334 17.021C27.621 17.021 27.92 17.072 28.223 17.172C29.578 17.621 30.298 19.16 29.826 20.601C29.045 22.991 24.584 24.99 22.212 25.82C20.48 22.934 18.542 18.694 19.068 17.086C19.448 15.924 20.476 15.144 21.627 15.144ZM21.627 14.144C20.092 14.144 18.642 15.172 18.117 16.776C17.148 19.74 21.775 27.017 21.775 27.017C21.775 27.017 29.55 24.664 30.776 20.913C31.422 18.938 30.416 16.847 28.537 16.224C28.117 16.085 27.716 16.022 27.334 16.022C26.373 16.022 25.533 16.419 24.828 17.001C24.258 15.833 23.937 14.721 22.695 14.315C22.341 14.199 21.982 14.144 21.627 14.144Z" fill="#C74343"/>
<path d="M2 32.5C1.724 32.5 1.5 32.276 1.5 32V1C1.5 0.724 1.724 0.5 2 0.5H24C24.276 0.5 24.5 0.724 24.5 1V32C24.5 32.276 24.276 32.5 24 32.5H2Z" fill="white"/>
<path d="M24 1V32H2V1H24ZM24 0H2C1.45 0 1 0.45 1 1V32C1 32.55 1.45 33 2 33H24C24.55 33 25 32.55 25 32V1C25 0.45 24.55 0 24 0Z" fill="#788B9C"/>
<path d="M21.833 8H20.923L20.473 6.727H18.506L18.074 8H17.167L19.039 3H19.973L21.833 8ZM20.253 6.051L19.559 4.057C19.538 3.992 19.516 3.887 19.493 3.743H19.479C19.458 3.875 19.435 3.98 19.409 4.057L18.722 6.051H20.253ZM4.167 25H5.077L5.527 26.273H7.494L7.926 25H8.833L6.96 30H6.026L4.167 25ZM5.747 26.949L6.441 28.943C6.462 29.008 6.484 29.113 6.507 29.257H6.521C6.542 29.125 6.565 29.02 6.591 28.943L7.278 26.949H5.747Z" fill="#788B9C"/>
<path d="M9.792 20.5C8.154 20.5 6.5 19.601 6.5 17.593C6.5 14.36 11.729 10.497 13 9.60699C14.271 10.499 19.5 14.363 19.5 17.593C19.5 19.601 17.847 20.5 16.208 20.5H9.792Z" fill="#B6C9D6"/>
<path d="M13 10.214C15.076 11.696 19 15.026 19 17.592C19 19.256 17.598 20 16.208 20H14.4H11.6H9.792C8.402 20 7 19.256 7 17.593C7 15.031 10.924 11.698 13 10.214ZM13 9C13 9 6 13.619 6 17.593C6 19.72 7.698 21 9.792 21C10.546 21 10.909 21 11.6 21H14.4C15.092 21 15.454 21 16.208 21C18.302 21 20 19.72 20 17.593C20 13.619 13 9 13 9Z" fill="#788B9C"/>
<path d="M12.05 22.5C12.257 22.199 12.391 21.854 12.455 21.5H13.545C13.609 21.854 13.743 22.199 13.95 22.5H12.05Z" fill="#B6C9D6"/>
<path d="M14 21H12C12 22.029 11.349 23 10 23H13H16C14.651 23 14 22.029 14 21Z" fill="#788B9C"/>
<path d="M10 23H16V24H10V23Z" fill="#B6C9D6"/>
<path d="M16 23H10V24H16V23Z" fill="#788B9C"/>
</g>
<defs>
<clipPath id="clip0_1_11">
<rect width="40" height="40" fill="white"/>
</clipPath>
</defs>
</svg>
